<mxfile host="Electron" modified="2024-04-01T07:55:26.364Z" agent="Mozilla/5.0 (Windows NT 10.0; Win64; x64) AppleWebKit/537.36 (KHTML, like Gecko) draw.io/24.1.0 Chrome/120.0.6099.109 Electron/28.1.0 Safari/537.36" etag="Sb3eTLJ-PXsQ3veJwkyb" version="24.1.0" type="device">
  <diagram name="ページ1" id="eTIhgmcUkqD9P8CmnNYz">
    <mxGraphModel dx="587" dy="565" grid="1" gridSize="10" guides="1" tooltips="1" connect="1" arrows="1" fold="1" page="1" pageScale="1" pageWidth="827" pageHeight="1169" math="1" shadow="0">
      <root>
        <mxCell id="0" />
        <mxCell id="1" parent="0" />
        <mxCell id="kKnKgXSYTpHCEqV2pfQw-1" value="" style="verticalLabelPosition=bottom;shadow=0;dashed=0;align=center;html=1;verticalAlign=top;shape=mxgraph.electrical.transistors.npn_transistor_5;" vertex="1" parent="1">
          <mxGeometry x="336" y="470" width="64" height="100" as="geometry" />
        </mxCell>
        <mxCell id="kKnKgXSYTpHCEqV2pfQw-2" value="" style="verticalLabelPosition=bottom;shadow=0;dashed=0;align=center;html=1;verticalAlign=top;shape=mxgraph.electrical.transistors.npn_transistor_5;flipH=1;" vertex="1" parent="1">
          <mxGeometry x="480" y="470" width="64" height="100" as="geometry" />
        </mxCell>
        <mxCell id="kKnKgXSYTpHCEqV2pfQw-3" value="" style="verticalLabelPosition=bottom;shadow=0;dashed=0;align=center;html=1;verticalAlign=top;shape=mxgraph.electrical.transistors.npn_transistor_5;" vertex="1" parent="1">
          <mxGeometry x="376" y="630" width="64" height="100" as="geometry" />
        </mxCell>
        <mxCell id="kKnKgXSYTpHCEqV2pfQw-5" value="" style="shape=waypoint;sketch=0;fillStyle=solid;size=6;pointerEvents=1;points=[];fillColor=none;resizable=0;rotatable=0;perimeter=centerPerimeter;snapToPoint=1;fontFamily=Helvetica;fontSize=11;fontColor=default;labelBackgroundColor=default;" vertex="1" parent="1">
          <mxGeometry x="430" y="570" width="20" height="20" as="geometry" />
        </mxCell>
        <mxCell id="kKnKgXSYTpHCEqV2pfQw-7" style="edgeStyle=orthogonalEdgeStyle;rounded=0;orthogonalLoop=1;jettySize=auto;html=1;exitX=1;exitY=1;exitDx=0;exitDy=0;exitPerimeter=0;entryX=1.116;entryY=0.295;entryDx=0;entryDy=0;entryPerimeter=0;strokeColor=default;align=center;verticalAlign=middle;fontFamily=Helvetica;fontSize=11;fontColor=default;labelBackgroundColor=default;endArrow=none;endFill=0;" edge="1" parent="1" source="kKnKgXSYTpHCEqV2pfQw-2" target="kKnKgXSYTpHCEqV2pfQw-5">
          <mxGeometry relative="1" as="geometry">
            <Array as="points">
              <mxPoint x="480" y="580" />
            </Array>
          </mxGeometry>
        </mxCell>
        <mxCell id="kKnKgXSYTpHCEqV2pfQw-8" style="edgeStyle=orthogonalEdgeStyle;rounded=0;orthogonalLoop=1;jettySize=auto;html=1;exitX=1;exitY=1;exitDx=0;exitDy=0;exitPerimeter=0;entryX=0.11;entryY=0.08;entryDx=0;entryDy=0;entryPerimeter=0;strokeColor=default;align=center;verticalAlign=middle;fontFamily=Helvetica;fontSize=11;fontColor=default;labelBackgroundColor=default;endArrow=none;endFill=0;" edge="1" parent="1" source="kKnKgXSYTpHCEqV2pfQw-1" target="kKnKgXSYTpHCEqV2pfQw-5">
          <mxGeometry relative="1" as="geometry">
            <Array as="points">
              <mxPoint x="400" y="580" />
            </Array>
          </mxGeometry>
        </mxCell>
        <mxCell id="kKnKgXSYTpHCEqV2pfQw-9" style="edgeStyle=orthogonalEdgeStyle;rounded=0;orthogonalLoop=1;jettySize=auto;html=1;exitX=1;exitY=0;exitDx=0;exitDy=0;exitPerimeter=0;entryX=0.43;entryY=1.13;entryDx=0;entryDy=0;entryPerimeter=0;strokeColor=default;align=center;verticalAlign=middle;fontFamily=Helvetica;fontSize=11;fontColor=default;labelBackgroundColor=default;endArrow=none;endFill=0;" edge="1" parent="1" source="kKnKgXSYTpHCEqV2pfQw-3" target="kKnKgXSYTpHCEqV2pfQw-5">
          <mxGeometry relative="1" as="geometry" />
        </mxCell>
        <mxCell id="kKnKgXSYTpHCEqV2pfQw-10" value="" style="pointerEvents=1;verticalLabelPosition=bottom;shadow=0;dashed=0;align=center;html=1;verticalAlign=top;shape=mxgraph.electrical.signal_sources.signal_ground;fontFamily=Helvetica;fontSize=11;fontColor=default;labelBackgroundColor=default;" vertex="1" parent="1">
          <mxGeometry x="417.5" y="750" width="45" height="30" as="geometry" />
        </mxCell>
        <mxCell id="kKnKgXSYTpHCEqV2pfQw-11" style="edgeStyle=orthogonalEdgeStyle;rounded=0;orthogonalLoop=1;jettySize=auto;html=1;exitX=0.5;exitY=0;exitDx=0;exitDy=0;exitPerimeter=0;entryX=1;entryY=1;entryDx=0;entryDy=0;entryPerimeter=0;strokeColor=default;align=center;verticalAlign=middle;fontFamily=Helvetica;fontSize=11;fontColor=default;labelBackgroundColor=default;endArrow=none;endFill=0;" edge="1" parent="1" source="kKnKgXSYTpHCEqV2pfQw-10" target="kKnKgXSYTpHCEqV2pfQw-3">
          <mxGeometry relative="1" as="geometry" />
        </mxCell>
        <mxCell id="kKnKgXSYTpHCEqV2pfQw-12" value="875m" style="text;html=1;align=center;verticalAlign=middle;resizable=0;points=[];autosize=1;strokeColor=none;fillColor=none;fontFamily=Helvetica;fontSize=11;fontColor=default;labelBackgroundColor=default;" vertex="1" parent="1">
          <mxGeometry x="300" y="580" width="50" height="30" as="geometry" />
        </mxCell>
        <mxCell id="kKnKgXSYTpHCEqV2pfQw-13" value="" style="endArrow=classic;html=1;rounded=0;strokeColor=default;align=center;verticalAlign=middle;fontFamily=Helvetica;fontSize=11;fontColor=default;labelBackgroundColor=default;edgeStyle=orthogonalEdgeStyle;" edge="1" parent="1">
          <mxGeometry width="50" height="50" relative="1" as="geometry">
            <mxPoint x="380" y="612.5" as="sourcePoint" />
            <mxPoint x="340" y="547.01" as="targetPoint" />
          </mxGeometry>
        </mxCell>
        <mxCell id="kKnKgXSYTpHCEqV2pfQw-14" value="" style="endArrow=classic;html=1;rounded=0;strokeColor=default;align=center;verticalAlign=middle;fontFamily=Helvetica;fontSize=11;fontColor=default;labelBackgroundColor=default;edgeStyle=orthogonalEdgeStyle;" edge="1" parent="1">
          <mxGeometry width="50" height="50" relative="1" as="geometry">
            <mxPoint x="420" y="560" as="sourcePoint" />
            <mxPoint x="420" y="480" as="targetPoint" />
          </mxGeometry>
        </mxCell>
        <mxCell id="kKnKgXSYTpHCEqV2pfQw-15" value="405.3m" style="text;html=1;align=center;verticalAlign=middle;resizable=0;points=[];autosize=1;strokeColor=none;fillColor=none;fontFamily=Helvetica;fontSize=11;fontColor=default;labelBackgroundColor=default;" vertex="1" parent="1">
          <mxGeometry x="412.5" y="505" width="60" height="30" as="geometry" />
        </mxCell>
        <mxCell id="kKnKgXSYTpHCEqV2pfQw-16" value="528m" style="text;html=1;align=center;verticalAlign=middle;resizable=0;points=[];autosize=1;strokeColor=none;fillColor=none;fontFamily=Helvetica;fontSize=11;fontColor=default;labelBackgroundColor=default;" vertex="1" parent="1">
          <mxGeometry x="440" y="580" width="50" height="30" as="geometry" />
        </mxCell>
        <mxCell id="kKnKgXSYTpHCEqV2pfQw-17" value="910m" style="text;html=1;align=center;verticalAlign=middle;resizable=0;points=[];autosize=1;strokeColor=none;fillColor=none;fontFamily=Helvetica;fontSize=11;fontColor=default;labelBackgroundColor=default;" vertex="1" parent="1">
          <mxGeometry x="343" y="680" width="50" height="30" as="geometry" />
        </mxCell>
        <mxCell id="kKnKgXSYTpHCEqV2pfQw-18" value="1.403" style="text;html=1;align=center;verticalAlign=middle;resizable=0;points=[];autosize=1;strokeColor=none;fillColor=none;fontFamily=Helvetica;fontSize=11;fontColor=default;labelBackgroundColor=default;" vertex="1" parent="1">
          <mxGeometry x="280" y="500" width="50" height="30" as="geometry" />
        </mxCell>
        <mxCell id="kKnKgXSYTpHCEqV2pfQw-19" value="933m" style="text;html=1;align=center;verticalAlign=middle;resizable=0;points=[];autosize=1;strokeColor=none;fillColor=none;fontFamily=Helvetica;fontSize=11;fontColor=default;labelBackgroundColor=default;" vertex="1" parent="1">
          <mxGeometry x="345" y="440" width="50" height="30" as="geometry" />
        </mxCell>
        <mxCell id="kKnKgXSYTpHCEqV2pfQw-20" value="0.5mA" style="text;html=1;align=center;verticalAlign=middle;resizable=0;points=[];autosize=1;strokeColor=none;fillColor=none;fontFamily=Helvetica;fontSize=11;fontColor=default;labelBackgroundColor=default;" vertex="1" parent="1">
          <mxGeometry x="475" y="440" width="60" height="30" as="geometry" />
        </mxCell>
        <mxCell id="kKnKgXSYTpHCEqV2pfQw-22" style="edgeStyle=orthogonalEdgeStyle;rounded=0;orthogonalLoop=1;jettySize=auto;html=1;exitX=0;exitY=0.5;exitDx=0;exitDy=0;exitPerimeter=0;strokeColor=default;align=center;verticalAlign=middle;fontFamily=Helvetica;fontSize=11;fontColor=default;labelBackgroundColor=default;endArrow=none;endFill=0;" edge="1" parent="1" source="kKnKgXSYTpHCEqV2pfQw-21">
          <mxGeometry relative="1" as="geometry">
            <mxPoint x="320" y="280" as="targetPoint" />
            <Array as="points">
              <mxPoint x="400" y="280" />
            </Array>
          </mxGeometry>
        </mxCell>
        <mxCell id="kKnKgXSYTpHCEqV2pfQw-21" value="" style="pointerEvents=1;verticalLabelPosition=bottom;shadow=0;dashed=0;align=center;html=1;verticalAlign=top;shape=mxgraph.electrical.resistors.resistor_1;fontFamily=Helvetica;fontSize=11;fontColor=default;labelBackgroundColor=default;direction=south;" vertex="1" parent="1">
          <mxGeometry x="390" y="320" width="20" height="100" as="geometry" />
        </mxCell>
        <mxCell id="kKnKgXSYTpHCEqV2pfQw-23" style="edgeStyle=orthogonalEdgeStyle;rounded=0;orthogonalLoop=1;jettySize=auto;html=1;exitX=1;exitY=0.5;exitDx=0;exitDy=0;exitPerimeter=0;entryX=1;entryY=0;entryDx=0;entryDy=0;entryPerimeter=0;strokeColor=default;align=center;verticalAlign=middle;fontFamily=Helvetica;fontSize=11;fontColor=default;labelBackgroundColor=default;endArrow=none;endFill=0;" edge="1" parent="1" source="kKnKgXSYTpHCEqV2pfQw-21" target="kKnKgXSYTpHCEqV2pfQw-1">
          <mxGeometry relative="1" as="geometry" />
        </mxCell>
        <mxCell id="kKnKgXSYTpHCEqV2pfQw-24" value="1.7" style="text;html=1;align=center;verticalAlign=middle;resizable=0;points=[];autosize=1;strokeColor=none;fillColor=none;fontFamily=Helvetica;fontSize=11;fontColor=default;labelBackgroundColor=default;" vertex="1" parent="1">
          <mxGeometry x="331" y="250" width="40" height="30" as="geometry" />
        </mxCell>
        <mxCell id="kKnKgXSYTpHCEqV2pfQw-28" value="" style="endArrow=classic;html=1;rounded=0;strokeColor=default;align=center;verticalAlign=middle;fontFamily=Helvetica;fontSize=11;fontColor=default;labelBackgroundColor=default;" edge="1" parent="1">
          <mxGeometry width="50" height="50" relative="1" as="geometry">
            <mxPoint x="360" y="415" as="sourcePoint" />
            <mxPoint x="360" y="325" as="targetPoint" />
          </mxGeometry>
        </mxCell>
        <mxCell id="kKnKgXSYTpHCEqV2pfQw-29" value="762m" style="text;html=1;align=center;verticalAlign=middle;resizable=0;points=[];autosize=1;strokeColor=none;fillColor=none;fontFamily=Helvetica;fontSize=11;fontColor=default;labelBackgroundColor=default;" vertex="1" parent="1">
          <mxGeometry x="305" y="355" width="50" height="30" as="geometry" />
        </mxCell>
        <mxCell id="kKnKgXSYTpHCEqV2pfQw-30" value="762 `\Omega`" style="text;html=1;align=center;verticalAlign=middle;resizable=0;points=[];autosize=1;strokeColor=none;fillColor=none;fontFamily=Helvetica;fontSize=11;fontColor=default;labelBackgroundColor=default;" vertex="1" parent="1">
          <mxGeometry x="400" y="355" width="90" height="30" as="geometry" />
        </mxCell>
      </root>
    </mxGraphModel>
  </diagram>
</mxfile>
